<?xml version="1.0" encoding="utf-8"?>
<!-- Generator: Adobe Illustrator 25.0.0, SVG Export Plug-In . SVG Version: 6.00 Build 0)  -->
<svg version="1.1" id="Capa_1" xmlns="http://www.w3.org/2000/svg" xmlns:xlink="http://www.w3.org/1999/xlink" x="0px" y="0px"
	 viewBox="0 0 1920 1080" style="enable-background:new 0 0 1920 1080;" xml:space="preserve">
<style type="text/css">
	.st0{fill:none;}
</style>
<g>
	<rect x="713.1" y="450.2" class="st0" width="141.7" height="189.6"/>
	<g>
		<path d="M385.3,454.6l82.8,185.1h-39.5l-12.3-27.6h-62.1L342,639.7h-39.4L385.3,454.6z"/>
		<path d="M483.9,458.3h59.2c20.2,0,36.5,7.6,47.5,18.5c11,11,17.6,21.1,17.6,41.2v4.7c0,12.2-3.8,23.7-11.5,34.5
			c-6.4,8.9-11.4,12.7-21.7,16.8l42.2,65.7h-44.6l-52.1-80.2v80.2H484L483.9,458.3z M570.5,519.1c0-6.6-2.4-12.4-7.2-17.4
			c-4.7-4.6-13.7-7.2-22.5-7.2h-20.5v50.1h14.1v0.1h12.2C559.8,544.6,570.5,532.9,570.5,519.1z"/>
		<path d="M632.7,458.3h36.5v181.4h-36.5V458.3z"/>
		<path d="M801.1,457.8v36.3h-72.9v36.6h54.7v36.3h-54.7v36.6h72.9v36.2H691.7V457.8H801.1z"/>
		<path d="M853.3,458.3v145.1h72.9v36.2H816.8V458.3H853.3z"/>
		<path d="M1098.3,575.9l88.8-121.9v185.7h-36.5v-75.2l-52.3,72.2l-52.4-72.2v75.2h-36.5V454L1098.3,575.9z"/>
		<path d="M1319,457.8v36.3H1246v36.6h54.7v36.3H1246v36.6h72.9v36.2h-109.4V457.8H1319z"/>
		<path d="M1334.7,458.3h59.2c20.2,0,36.5,7.6,47.5,18.5c11,11,17.6,21.1,17.6,41.2v4.7c0,12.2-3.8,23.7-11.5,34.5
			c-6.4,8.9-11.4,12.7-21.7,16.8l42.2,65.7h-44.6l-52.1-80.2v80.2h-36.5L1334.7,458.3z M1421.3,519.1c0-6.6-2.4-12.4-7.2-17.4
			c-4.7-4.6-13.7-7.2-22.5-7.2h-20.5v50.1h14.1v0.1h12.2C1410.7,544.6,1421.3,532.9,1421.3,519.1z"/>
		<path d="M1483.6,458.3h36.5v181.4h-36.5V458.3z"/>
		<path d="M1651.8,558.5V457.8h36.6v185.5L1579,539.2v100.7h-36.5V454.5L1651.8,558.5z"/>
		<path d="M1861.2,483.9c18.1,18.1,27.1,39.8,27.1,65.1c0,25.4-9,47.1-27.1,65c-18,17.9-39.7,26.8-65,26.8c-25.4-0.1-47.1-9-65-26.8
			c-18-18-27-39.7-27-65c0-25.3,9-47,27-65.1c18.1-18.1,39.8-27.1,65-27.1S1843.1,465.9,1861.2,483.9z M1757.1,509.8
			c-10.8,11-16.2,24-16.2,39c0,15.2,5.4,28.2,16.2,39c10.7,10.7,23.7,16.1,39,16.1c15.1,0,28.1-5.4,38.9-16.1
			c10.9-10.7,16.3-23.7,16.3-39c0-15.2-5.4-28.2-16.3-39c-10.8-10.8-23.8-16.2-38.9-16.2C1780.8,493.6,1767.7,499,1757.1,509.8z"/>
	</g>
</g>
</svg>
