<?xml version="1.0" encoding="utf-8"?>
<!-- Generator: Adobe Illustrator 25.0.0, SVG Export Plug-In . SVG Version: 6.00 Build 0)  -->
<svg version="1.1" id="Capa_1" xmlns="http://www.w3.org/2000/svg" xmlns:xlink="http://www.w3.org/1999/xlink" x="0px" y="0px"
	 viewBox="0 0 1920 1080" style="enable-background:new 0 0 1920 1080;" xml:space="preserve">
<style type="text/css">
	.st0{fill:none;}
	.st1{fill:#FFFFFF;}
</style>
<g>
	<rect x="627.1" y="353.2" class="st0" width="141.7" height="189.6"/>
	<g>
		<path class="st1" d="M299.3,357.6l82.8,185.1h-39.5l-12.3-27.6h-62.1L256,542.7h-39.4L299.3,357.6z"/>
		<path class="st1" d="M397.9,361.3h59.2c20.2,0,36.5,7.6,47.5,18.5c11,11,17.6,21.1,17.6,41.2v4.7c0,12.2-3.8,23.7-11.5,34.5
			c-6.4,8.9-11.4,12.7-21.7,16.8l42.2,65.7h-44.6l-52.1-80.2v80.2H398L397.9,361.3z M484.5,422.1c0-6.6-2.4-12.4-7.2-17.4
			c-4.7-4.6-13.7-7.2-22.5-7.2h-20.5v50.1h14.1v0.1h12.2C473.8,447.6,484.5,435.9,484.5,422.1z"/>
		<path class="st1" d="M546.7,361.3h36.5v181.4h-36.5V361.3z"/>
		<path class="st1" d="M715.1,360.8v36.3h-72.9v36.6h54.7v36.3h-54.7v36.6h72.9v36.2H605.7V360.8H715.1z"/>
		<path class="st1" d="M767.3,361.3v145.1h72.9v36.2H730.8V361.3H767.3z"/>
		<path class="st1" d="M1012.3,478.9l88.8-121.9v185.7h-36.5v-75.2l-52.3,72.2l-52.4-72.2v75.2h-36.5V357L1012.3,478.9z"/>
		<path class="st1" d="M1233,360.8v36.3H1160v36.6h54.7v36.3H1160v36.6h72.9v36.2h-109.4V360.8H1233z"/>
		<path class="st1" d="M1248.7,361.3h59.2c20.2,0,36.5,7.6,47.5,18.5c11,11,17.6,21.1,17.6,41.2v4.7c0,12.2-3.8,23.7-11.5,34.5
			c-6.4,8.9-11.4,12.7-21.7,16.8l42.2,65.7h-44.6l-52.1-80.2v80.2h-36.5L1248.7,361.3z M1335.3,422.1c0-6.6-2.4-12.4-7.2-17.4
			c-4.7-4.6-13.7-7.2-22.5-7.2h-20.5v50.1h14.1v0.1h12.2C1324.7,447.6,1335.3,435.9,1335.3,422.1z"/>
		<path class="st1" d="M1397.6,361.3h36.5v181.4h-36.5V361.3z"/>
		<path class="st1" d="M1565.8,461.5V360.8h36.6v185.5L1493,442.2v100.7h-36.5V357.5L1565.8,461.5z"/>
		<path class="st1" d="M1775.2,386.9c18.1,18.1,27.1,39.8,27.1,65.1c0,25.4-9,47.1-27.1,65c-18,17.9-39.7,26.8-65,26.8
			c-25.4-0.1-47.1-9-65-26.8c-18-18-27-39.7-27-65c0-25.3,9-47,27-65.1c18.1-18.1,39.8-27.1,65-27.1S1757.1,368.9,1775.2,386.9z
			 M1671.1,412.8c-10.8,11-16.2,24-16.2,39c0,15.2,5.4,28.2,16.2,39c10.7,10.7,23.7,16.1,39,16.1c15.1,0,28.1-5.4,38.9-16.1
			c10.9-10.7,16.3-23.7,16.3-39c0-15.2-5.4-28.2-16.3-39c-10.8-10.8-23.8-16.2-38.9-16.2C1694.8,396.6,1681.7,402,1671.1,412.8z"/>
	</g>
</g>
</svg>
