<?xml version="1.0" encoding="utf-8"?>
<!-- Generator: Adobe Illustrator 25.0.0, SVG Export Plug-In . SVG Version: 6.00 Build 0)  -->
<svg version="1.1" id="Capa_1" xmlns="http://www.w3.org/2000/svg" xmlns:xlink="http://www.w3.org/1999/xlink" x="0px" y="0px"
	 viewBox="0 0 1920 1080" style="enable-background:new 0 0 1920 1080;" xml:space="preserve">
<style type="text/css">
	.st0{fill:none;}
	.st1{fill:#FFFFFF;}
</style>
<g>
	<rect x="775.1" y="271.2" class="st0" width="141.7" height="189.6"/>
	<g>
		<path class="st1" d="M447.3,275.6l82.8,185.1h-39.5l-12.3-27.6h-62.1L404,460.7h-39.4L447.3,275.6z"/>
		<path class="st1" d="M545.9,279.3h59.2c20.2,0,36.5,7.6,47.5,18.5c11,11,17.6,21.1,17.6,41.2v4.7c0,12.2-3.8,23.7-11.5,34.5
			c-6.4,8.9-11.4,12.7-21.7,16.8l42.2,65.7h-44.6l-52.1-80.2v80.2H546L545.9,279.3z M632.5,340.1c0-6.6-2.4-12.4-7.2-17.4
			c-4.7-4.6-13.7-7.2-22.5-7.2h-20.5v50.1h14.1v0.1h12.2C621.8,365.6,632.5,353.9,632.5,340.1z"/>
		<path class="st1" d="M694.7,279.3h36.5v181.4h-36.5V279.3z"/>
		<path class="st1" d="M863.1,278.8v36.3h-72.9v36.6h54.7v36.3h-54.7v36.6h72.9v36.2H753.7V278.8H863.1z"/>
		<path class="st1" d="M915.3,279.3v145.1h72.9v36.2H878.8V279.3H915.3z"/>
		<path class="st1" d="M458.3,612.9L547.1,491v185.7h-36.5v-75.2l-52.3,72.2l-52.4-72.2v75.2h-36.5V491L458.3,612.9z"/>
		<path class="st1" d="M679,494.8v36.3H606v36.6h54.7v36.3H606v36.6H679v36.2H569.6V494.8H679z"/>
		<path class="st1" d="M694.7,495.3h59.2c20.2,0,36.5,7.6,47.5,18.5c11,11,17.6,21.1,17.6,41.2v4.7c0,12.2-3.8,23.7-11.5,34.5
			c-6.4,8.9-11.4,12.7-21.7,16.8l42.2,65.7h-44.6l-52.1-80.2v80.2h-36.5L694.7,495.3z M781.3,556.1c0-6.6-2.4-12.4-7.2-17.4
			c-4.7-4.6-13.7-7.2-22.5-7.2h-20.5v50.1h14.1v0.1h12.2C770.7,581.6,781.3,569.9,781.3,556.1z"/>
		<path class="st1" d="M843.6,495.3H880v181.4h-36.5V495.3z"/>
		<path class="st1" d="M1011.8,595.5V494.8h36.6v185.5L939,576.2v100.7h-36.5V491.5L1011.8,595.5z"/>
		<path class="st1" d="M1221.2,520.9c18.1,18.1,27.1,39.8,27.1,65.1c0,25.4-9,47.1-27.1,65c-18,17.9-39.7,26.8-65,26.8
			c-25.4-0.1-47.1-9-65-26.8c-18-18-27-39.7-27-65c0-25.3,9-47,27-65.1c18.1-18.1,39.8-27.1,65-27.1S1203.1,502.9,1221.2,520.9z
			 M1117.1,546.8c-10.8,11-16.2,24-16.2,39c0,15.2,5.4,28.2,16.2,39c10.7,10.7,23.7,16.1,39,16.1c15.1,0,28.1-5.4,38.9-16.1
			c10.9-10.7,16.3-23.7,16.3-39c0-15.2-5.4-28.2-16.3-39c-10.8-10.8-23.8-16.2-38.9-16.2C1140.8,530.6,1127.7,536,1117.1,546.8z"/>
	</g>
</g>
</svg>
