<svg width="50" height="63" viewBox="0 0 50 63" fill="none" xmlns="http://www.w3.org/2000/svg">
<path d="M24.4876 0L45 46.403H35.2145L32.1674 39.4839H16.7831L13.7607 46.403H4L24.4876 0Z" fill="white"/>
<path d="M5.00281 59.0775L10 52.4556V62.5432H7.94598V58.4582L5.00281 62.3802L2.05402 58.4582V62.5432H0V52.4556L5.00281 59.0775Z" fill="white"/>
<path d="M18 52.4556V54.4676H13.3333V56.4962H16.8301V58.5082H13.3333V60.5368H17.9936V62.5432H11V52.4556H18Z" fill="white"/>
<path d="M19 52.4556H22.5529C23.7652 52.4556 24.7434 52.8782 25.4036 53.4844C26.0638 54.0961 26.4599 54.6578 26.4599 55.7755V56.0369C26.4599 56.7153 26.2318 57.3548 25.7697 57.9554C25.3856 58.4503 25.0855 58.6617 24.4674 58.8897L27 62.5432H24.3233L21.1966 58.0833V62.5432H19.006L19 52.4556ZM24.1973 55.8367C24.1973 55.4697 24.0533 55.1471 23.7652 54.8691C23.4831 54.6133 22.943 54.4687 22.4149 54.4687H21.1845V57.2547H22.0308V57.2603H22.7629C23.5611 57.2547 24.1973 56.6041 24.1973 55.8367Z" fill="white"/>
<path d="M28 52.4556H30V62.5432H28V52.4556Z" fill="white"/>
<path d="M36.9931 58.0123V52.6319H39V62.5432L33.0014 56.9811V62.3616H31V52.4556L36.9931 58.0123Z" fill="white"/>
<path d="M48.528 53.9413C49.5111 54.9336 50 56.1233 50 57.5104C50 58.9029 49.5111 60.0926 48.528 61.0739C47.5502 62.0553 46.3715 62.5432 44.9973 62.5432C43.6176 62.5377 42.4389 62.0498 41.4666 61.0739C40.4889 60.0871 40 58.8974 40 57.5104C40 56.1233 40.4889 54.9336 41.4666 53.9413C42.4498 52.949 43.6285 52.4556 44.9973 52.4556C46.3661 52.4556 47.5448 52.9545 48.528 53.9413ZM42.8734 55.3613C42.2868 55.9643 41.9935 56.677 41.9935 57.4994C41.9935 58.3327 42.2868 59.0454 42.8734 59.6375C43.4546 60.2242 44.1608 60.5202 44.9919 60.5202C45.8121 60.5202 46.5182 60.2242 47.1048 59.6375C47.6969 59.0509 47.9902 58.3382 47.9902 57.4994C47.9902 56.6661 47.6969 55.9534 47.1048 55.3613C46.5182 54.7692 45.8121 54.4731 44.9919 54.4731C44.1608 54.4731 43.4492 54.7692 42.8734 55.3613Z" fill="white"/>
</svg>
