<svg width="231" height="107" viewBox="0 0 231 107" fill="none" xmlns="http://www.w3.org/2000/svg">
<path d="M21.5897 1.14865L43.2056 49.471H32.8937L29.6826 42.2657H13.4707L10.2858 49.471H0L21.5897 1.14865Z" fill="white"/>
<path d="M47.3303 2.11456H62.7851C68.0585 2.11456 72.3138 4.09863 75.1855 6.94419C78.0572 9.81586 79.7802 12.4526 79.7802 17.6999V18.9269C79.7802 22.1118 78.7881 25.114 76.778 27.9335C75.1072 30.2569 73.8019 31.249 71.113 32.3193L82.1297 49.471H70.4864L56.8851 28.5339V49.471H47.3564L47.3303 2.11456ZM69.9382 17.9871C69.9382 16.2641 69.3116 14.7499 68.0585 13.4446C66.8316 12.2437 64.482 11.565 62.1847 11.565H56.8329V24.6441H60.5139V24.6702H63.6988C67.1448 24.6441 69.9382 21.5897 69.9382 17.9871Z" fill="white"/>
<path d="M86.1763 2.11456H95.705V49.471H86.1763V2.11456Z" fill="white"/>
<path d="M130.139 1.98404V11.4606H111.108V21.0154H125.388V30.4919H111.108V40.0467H130.139V49.4971H101.579V1.98404H130.139Z" fill="white"/>
<path d="M143.766 2.11456V39.9945H162.798V49.4449H134.238V2.11456H143.766Z" fill="white"/>
<path d="M24.4615 89.2045L47.6437 57.3812V105.86H38.115V86.2284L24.4615 105.077L10.7819 86.2284V105.86H1.25317V57.3812L24.4615 89.2045Z" fill="white"/>
<path d="M82.0776 58.3732V67.8497H63.0202V77.4045H77.3002V86.881H63.0202V96.4358H82.0776V105.886H53.5176V58.3732H82.0776Z" fill="white"/>
<path d="M86.1763 58.5037H101.631C106.905 58.5037 111.16 60.4878 114.031 63.3333C116.903 66.205 118.626 68.8417 118.626 74.0891V75.316C118.626 78.501 117.634 81.5032 115.624 84.3226C113.953 86.6461 112.648 87.6381 109.959 88.7085L120.976 105.86H109.332L95.7311 84.9231V105.86H86.2024L86.1763 58.5037ZM108.784 74.3762C108.784 72.6532 108.158 71.1391 106.904 69.8338C105.678 68.6329 103.328 67.9541 101.031 67.9541H95.6789V81.0333H99.3598V81.0594H102.545C106.017 81.0333 108.784 77.9789 108.784 74.3762Z" fill="white"/>
<path d="M125.048 58.5037H134.551V105.86H125.022V58.5037H125.048Z" fill="white"/>
<path d="M168.959 84.662V58.3732H178.513V106.8L149.953 79.6235V105.912H140.425V57.5117L168.959 84.662Z" fill="white"/>
<path d="M223.625 65.1869C228.35 69.9121 230.7 75.5771 230.7 82.1819C230.7 88.8129 228.35 94.4779 223.625 99.1509C218.926 103.824 213.261 106.147 206.656 106.147C200.025 106.121 194.36 103.798 189.687 99.1509C184.988 94.4518 182.638 88.7868 182.638 82.1819C182.638 75.5771 184.988 69.9121 189.687 65.1869C194.412 60.4617 200.077 58.1121 206.656 58.1121C213.235 58.1121 218.9 60.4878 223.625 65.1869ZM196.448 71.9483C193.629 74.82 192.219 78.2138 192.219 82.1297C192.219 86.0978 193.629 89.4916 196.448 92.3111C199.242 95.1044 202.635 96.5142 206.63 96.5142C210.572 96.5142 213.965 95.1044 216.785 92.3111C219.631 89.5177 221.04 86.124 221.04 82.1297C221.04 78.1616 219.631 74.7678 216.785 71.9483C213.965 69.1289 210.572 67.7192 206.63 67.7192C202.635 67.7192 199.216 69.1289 196.448 71.9483Z" fill="white"/>
</svg>
