<svg width="29" height="30" viewBox="0 0 29 30" fill="none" xmlns="http://www.w3.org/2000/svg">
<g clip-path="url(#clip0)">
<path d="M28.5869 15C28.5869 7.23516 22.2938 0.942017 14.5289 0.942017C6.76409 0.942017 0.470947 7.23516 0.470947 15C0.470947 22.7648 6.76409 29.058 14.5289 29.058C14.6113 29.058 14.6937 29.058 14.776 29.0525V18.1136H11.7558V14.5936H14.776V12.0017C14.776 8.99789 16.6102 7.36146 19.29 7.36146C20.5749 7.36146 21.6787 7.45481 21.9972 7.49874V10.6398H20.1521C18.6969 10.6398 18.4113 11.3317 18.4113 12.3476V14.5881H21.8984L21.4426 18.1081H18.4113V28.5143C24.2871 26.8285 28.5869 21.4194 28.5869 15Z" fill="white"/>
</g>
<defs>
<clipPath id="clip0">
<rect width="28.1159" height="28.1159" fill="white" transform="translate(0.470947 0.942017)"/>
</clipPath>
</defs>
</svg>
