<svg width="29" height="30" viewBox="0 0 29 30" fill="none" xmlns="http://www.w3.org/2000/svg">
<g clip-path="url(#clip0)">
<path d="M14.4693 1.23466C6.70754 1.23466 0.413086 7.55371 0.413086 15.3489C0.413086 21.5836 4.44069 26.8729 10.0287 28.7408C10.7316 28.8709 10.9882 28.4351 10.9882 28.0608C10.9882 27.7251 10.9759 26.8377 10.9689 25.6604C7.05899 26.5126 6.23309 23.7678 6.23309 23.7678C5.59521 22.1371 4.67265 21.7031 4.67265 21.7031C3.39513 20.828 4.76754 20.8455 4.76754 20.8455C6.17861 20.9457 6.92017 22.3005 6.92017 22.3005C8.17484 24.4567 10.2115 23.8346 11.0128 23.4726C11.1393 22.5606 11.5031 21.9385 11.9055 21.5853C8.78461 21.2286 5.50207 20.0179 5.50207 14.6108C5.50207 13.0697 6.05033 11.8098 6.95004 10.8222C6.80419 10.4655 6.32271 9.0298 7.08711 7.08804C7.08711 7.08804 8.26798 6.70848 10.953 8.53426C12.0742 8.22147 13.2761 8.06507 14.4728 8.0598C15.666 8.06683 16.8697 8.22147 17.9926 8.53602C20.6759 6.71024 21.855 7.0898 21.855 7.0898C22.6212 9.03332 22.1397 10.4672 21.9956 10.8239C22.8971 11.8115 23.44 13.0715 23.44 14.6126C23.44 20.0337 20.154 21.2268 17.0226 21.5765C17.5269 22.0123 17.9768 22.8734 17.9768 24.1896C17.9768 26.0768 17.9592 27.5986 17.9592 28.0608C17.9592 28.4386 18.2122 28.8779 18.9257 28.7391C24.5049 26.8694 28.529 21.5818 28.529 15.3489C28.529 7.55371 22.2346 1.23466 14.4693 1.23466Z" fill="white"/>
</g>
<defs>
<clipPath id="clip0">
<rect width="28.1159" height="28.1159" fill="white" transform="translate(0.413086 0.942017)"/>
</clipPath>
</defs>
</svg>
