<svg width="30" height="30" viewBox="0 0 30 30" fill="none" xmlns="http://www.w3.org/2000/svg">
<g clip-path="url(#clip0)">
<path d="M12.3091 15C12.3091 16.4861 13.5138 17.6908 14.9999 17.6908C16.486 17.6908 17.6907 16.4861 17.6907 15C17.6907 13.5139 16.486 12.3092 14.9999 12.3092C13.5138 12.3092 12.3091 13.5139 12.3091 15Z" fill="white"/>
<path d="M8.70713 10.2392C8.83648 9.8887 9.04284 9.57144 9.31097 9.31103C9.57139 9.04289 9.88843 8.83654 10.2391 8.70719C10.5236 8.59672 10.9509 8.46522 11.7379 8.4294C12.5893 8.39058 12.8446 8.38221 14.9999 8.38221C17.1555 8.38221 17.4108 8.39036 18.2619 8.42919C19.049 8.46522 19.4765 8.59672 19.7607 8.70719C20.1114 8.83654 20.4287 9.04289 20.6889 9.31103C20.957 9.57144 21.1634 9.88848 21.2929 10.2392C21.4034 10.5236 21.5349 10.9512 21.5707 11.7382C21.6096 12.5893 21.6179 12.8446 21.6179 15.0002C21.6179 17.1556 21.6096 17.4108 21.5707 18.2622C21.5349 19.0492 21.4034 19.4765 21.2929 19.761C21.1634 20.1117 20.9572 20.4287 20.6891 20.6892C20.4287 20.9573 20.1116 21.1636 19.7609 21.293C19.4765 21.4037 19.049 21.5352 18.2619 21.571C17.4108 21.6098 17.1557 21.618 15.0001 21.618C12.8443 21.618 12.5891 21.6098 11.7381 21.571C10.9511 21.5352 10.5236 21.4037 10.2391 21.293C9.53513 21.0214 8.9787 20.465 8.70713 19.761C8.59666 19.4765 8.46517 19.0492 8.42913 18.2622C8.39031 17.4108 8.38215 17.1556 8.38215 15.0002C8.38215 12.8446 8.39031 12.5893 8.42913 11.7382C8.46495 10.9512 8.59645 10.5236 8.70713 10.2392ZM14.9999 19.1451C17.2894 19.1451 19.1453 17.2894 19.1453 15C19.1453 12.7105 17.2894 10.8548 14.9999 10.8548C12.7107 10.8548 10.8548 12.7105 10.8548 15C10.8548 17.2894 12.7107 19.1451 14.9999 19.1451ZM10.6909 11.6597C11.2259 11.6597 11.6596 11.2259 11.6596 10.691C11.6596 10.156 11.2259 9.72224 10.6909 9.72224C10.1559 9.72224 9.72218 10.156 9.72218 10.691C9.7224 11.2259 10.1559 11.6597 10.6909 11.6597Z" fill="white"/>
<path d="M14.9999 0.942017C22.7627 0.942017 29.0579 7.23717 29.0579 15C29.0579 22.7628 22.7627 29.058 14.9999 29.058C7.23707 29.058 0.941919 22.7628 0.941919 15C0.941919 7.23717 7.23707 0.942017 14.9999 0.942017ZM6.97623 18.3281C7.01527 19.1874 7.15191 19.7741 7.35141 20.2876C7.77077 21.3719 8.62794 22.2291 9.71228 22.6485C10.2256 22.848 10.8125 22.9844 11.6716 23.0236C12.5324 23.0629 12.8074 23.0723 14.9997 23.0723C17.1922 23.0723 17.4669 23.0629 18.328 23.0236C19.1871 22.9844 19.774 22.848 20.2873 22.6485C20.8261 22.4458 21.3139 22.1281 21.7172 21.7173C22.1278 21.3142 22.4454 20.8262 22.6482 20.2876C22.8477 19.7743 22.9843 19.1874 23.0233 18.3283C23.063 17.4673 23.0722 17.1923 23.0722 15C23.0722 12.8077 23.063 12.5327 23.0235 11.6719C22.9845 10.8126 22.8481 10.2259 22.6486 9.71237C22.4459 9.17375 22.128 8.68574 21.7172 8.28268C21.3141 7.8719 20.8261 7.55421 20.2875 7.3515C19.774 7.15201 19.1873 7.01558 18.328 6.97633C17.4672 6.93708 17.1922 6.92764 14.9999 6.92764C12.8076 6.92764 12.5326 6.93708 11.6718 6.97654C10.8125 7.01558 10.2258 7.15201 9.71228 7.35129C9.17365 7.554 8.68564 7.8719 8.28237 8.28268C7.8718 8.68596 7.5539 9.17375 7.35141 9.71237C7.1517 10.2259 7.01527 10.8126 6.97602 11.6719C6.93676 12.5327 6.92754 12.8077 6.92754 15C6.92754 17.1923 6.93676 17.4673 6.97623 18.3281Z" fill="white"/>
</g>
<defs>
<clipPath id="clip0">
<rect width="28.1159" height="28.1159" fill="white" transform="matrix(-1 0 0 1 29.0579 0.942017)"/>
</clipPath>
</defs>
</svg>
