<svg width="29" height="30" viewBox="0 0 29 30" fill="none" xmlns="http://www.w3.org/2000/svg">
<path d="M14.942 0.942017C7.17919 0.942017 0.884033 7.23717 0.884033 15C0.884033 22.7628 7.17919 29.058 14.942 29.058C22.7048 29.058 29 22.7628 29 15C29 7.23717 22.7048 0.942017 14.942 0.942017ZM10.8569 22.1937H7.43317V11.8933H10.8569V22.1937ZM9.14515 10.4867H9.12284C7.97394 10.4867 7.23088 9.69586 7.23088 8.70741C7.23088 7.69665 7.99668 6.92764 9.16789 6.92764C10.3391 6.92764 11.0598 7.69665 11.0822 8.70741C11.0822 9.69586 10.3391 10.4867 9.14515 10.4867ZM23.2023 22.1937H19.7789V16.6832C19.7789 15.2984 19.2832 14.3539 18.0444 14.3539C17.0987 14.3539 16.5354 14.991 16.2878 15.606C16.1973 15.8261 16.1752 16.1337 16.1752 16.4415V22.1937H12.7517C12.7517 22.1937 12.7965 12.8596 12.7517 11.8933H16.1752V13.3517C16.6302 12.6498 17.4442 11.6515 19.2607 11.6515C21.5132 11.6515 23.2023 13.1237 23.2023 16.2875V22.1937Z" fill="white"/>
</svg>
