<svg width="29" height="30" viewBox="0 0 29 30" fill="none" xmlns="http://www.w3.org/2000/svg">
<g clip-path="url(#clip0)">
<path d="M14.058 0.942017C6.29516 0.942017 0 7.23717 0 15C0 22.7628 6.29516 29.058 14.058 29.058C21.8208 29.058 28.1159 22.7628 28.1159 15C28.1159 7.23717 21.8208 0.942017 14.058 0.942017ZM20.4767 11.9029C20.4829 12.0413 20.4859 12.1803 20.4859 12.3199C20.4859 16.5837 17.2404 21.5004 11.3052 21.5006H11.3054H11.3052C9.48295 21.5006 7.78727 20.9665 6.35929 20.0512C6.61177 20.081 6.86875 20.0958 7.12895 20.0958C8.6408 20.0958 10.0321 19.5802 11.1366 18.7146C9.72406 18.6884 8.53311 17.7556 8.12212 16.4734C8.31882 16.5112 8.5211 16.5318 8.72853 16.5318C9.02305 16.5318 9.30834 16.4921 9.57948 16.4181C8.10303 16.1225 6.9908 14.8177 6.9908 13.2552C6.9908 13.2406 6.9908 13.2275 6.99123 13.214C7.42604 13.4557 7.92327 13.6012 8.45267 13.6175C7.58628 13.0394 7.01676 12.0512 7.01676 10.9316C7.01676 10.3405 7.17657 9.78659 7.45371 9.30974C9.04493 11.2622 11.423 12.5462 14.1047 12.6812C14.0494 12.4448 14.0209 12.1985 14.0209 11.9454C14.0209 10.1641 15.466 8.71899 17.2479 8.71899C18.1761 8.71899 19.0144 9.11132 19.6032 9.73854C20.3383 9.59354 21.0286 9.32497 21.6522 8.95538C21.4109 9.70851 20.8995 10.3405 20.2332 10.7401C20.886 10.662 21.508 10.4889 22.0861 10.2319C21.6543 10.8791 21.1067 11.4475 20.4767 11.9029Z" fill="white"/>
</g>
<defs>
<clipPath id="clip0">
<rect width="28.1159" height="28.1159" fill="white" transform="translate(0 0.942017)"/>
</clipPath>
</defs>
</svg>
